<svg viewBox="0 0 16 16" fill="none" xmlns="http://www.w3.org/2000/svg">
<circle cx="8" cy="8" r="8" fill="#0A2463"/>
<path d="M11 9.90909C11 10.5981 10.7511 11.1411 10.2532 11.5379C9.75541 11.9347 9.06277 12.1331 8.17532 12.1331C7.23737 12.1331 6.51227 12.0087 6 11.7597V10.8074C6.3355 10.9517 6.70166 11.0653 7.09848 11.1483C7.49892 11.2312 7.87229 11.2727 8.21861 11.2727C8.81025 11.2727 9.25577 11.1591 9.55519 10.9318C9.85462 10.7045 10.0043 10.3925 10.0043 9.99567C10.0043 9.73232 9.95022 9.51587 9.84199 9.34632C9.73377 9.17677 9.55159 9.01804 9.29545 8.87013C9.04293 8.72222 8.65873 8.55447 8.14286 8.36688C7.41053 8.09993 6.88745 7.78608 6.57359 7.42532C6.25974 7.06097 6.10281 6.59199 6.10281 6.0184C6.10281 5.40152 6.33369 4.91089 6.79545 4.54654C7.26082 4.18218 7.87229 4 8.62987 4C9.41991 4 10.1468 4.14791 10.8106 4.44372L10.5022 5.2987C9.82395 5.01732 9.19264 4.87662 8.60823 4.87662C8.13925 4.87662 7.77128 4.97763 7.50433 5.17965C7.24098 5.38167 7.10931 5.66486 7.10931 6.02922C7.10931 6.28896 7.15981 6.50541 7.26082 6.67857C7.36544 6.84812 7.53139 7.00325 7.75866 7.14394C7.98954 7.28463 8.35029 7.44517 8.84091 7.62554C9.42893 7.84199 9.86724 8.05303 10.1558 8.25866C10.4444 8.46068 10.6573 8.69517 10.7944 8.96212C10.9315 9.22547 11 9.54113 11 9.90909Z" fill="white"/>
</svg>
