<?xml version="1.0" encoding="UTF-8"?>
<svg width="13px" height="13px" viewBox="0 0 13 13" version="1.1" xmlns="http://www.w3.org/2000/svg" xmlns:xlink="http://www.w3.org/1999/xlink">
    <!-- Generator: Sketch 63.1 (92452) - https://sketch.com -->
    <title>icon_source</title>
    <desc>Created with Sketch.</desc>
    <g id="Page-1" stroke="none" stroke-width="1" fill="none" fill-rule="evenodd">
        <g id="icon_source" fill-rule="nonzero">
            <circle id="Oval" fill="#0A2463" cx="6.5" cy="6.5" r="6.5"></circle>
            <path d="M7.95,7.6 C7.95,8 7.85,8.3 7.55,8.6 C7.25,8.8 6.85,8.9 6.35,8.9 C5.75,8.9 5.35,8.8 5.05,8.7 L5.05,8.1 C5.25,8.2 5.45,8.3 5.75,8.3 C5.95,8.3 6.25,8.4 6.45,8.4 C6.85,8.4 7.05,8.3 7.25,8.2 C7.35,8.1 7.45,7.9 7.45,7.6 C7.45,7.4 7.45,7.3 7.35,7.2 C7.25,7.2 7.15,7.1 6.95,7 C6.85,6.9 6.65,6.8 6.35,6.7 C5.85,6.5 5.55,6.3 5.35,6.1 C5.15,5.9 5.05,5.6 5.05,5.3 C5.05,4.9 5.15,4.6 5.45,4.4 C5.75,4.2 6.15,4.1 6.55,4.1 C7.05,4.1 7.45,4.2 7.85,4.3 L7.65,4.9 C7.25,4.7 6.95,4.6 6.55,4.6 C6.25,4.6 6.05,4.7 5.95,4.8 C5.75,4.9 5.65,5.1 5.65,5.3 C5.65,5.5 5.65,5.6 5.75,5.7 C5.85,5.8 5.95,5.9 6.05,5.9 C6.25,6 6.45,6.1 6.75,6.2 C7.05,6.4 7.35,6.5 7.45,6.6 C7.65,6.7 7.75,6.9 7.85,7 C7.95,7.2 7.95,7.4 7.95,7.6 Z" id="Path" fill="#FFFFFF"></path>
        </g>
    </g>
</svg>