<svg width="67" height="75" viewBox="0 0 67 75" fill="none" xmlns="http://www.w3.org/2000/svg">
<path d="M30.15 0.9L4.05 16.05C1.95 17.25 0.599998 19.5 0.599998 22.05L0.450012 51.9C0.450012 54.3 1.80002 56.7 3.90002 57.9L29.85 72.9C31.95 74.1 34.65 74.1 36.75 72.9L63 57.75C65.1 56.55 66.45 54.3 66.45 51.75L66.6 21.9C66.6 19.5 65.25 17.1 63.15 15.9L37.2 0.9C34.95 -0.3 32.4 -0.3 30.15 0.9Z" fill="white"/>
<path d="M30 41.55V66.6L8.09999 54C6.59999 53.1 5.55 51.45 5.55 49.65V24.6L11.4 27.9L27.45 37.2C29.1 38.1 30 39.75 30 41.55Z" fill="#FD7268"/>
<path d="M60.9 24C60.9 22.2 60 20.55 58.5 19.65L47.7 13.35L41.1 9.45C41.1 9.45 41.1 9.45 40.95 9.45L36.6 6.89999C36.45 6.74999 36.15 6.59999 36 6.59999L31.65 4.04999C29.85 2.84999 27.75 2.69999 25.95 3.59999L25.2 4.04999L4.34999 16.2C2.99999 16.95 2.25 18.3 2.25 18.3C3.9 17.4 6.15001 17.55 7.65001 18.6L18.45 24.75L24.45 28.2L25.5 28.8L34.2 33.9C35.7 34.8 36.75 36.45 36.75 38.25V50.55V56.85V69C36.9 70.95 36 73.05 34.35 74.1C34.35 74.1 35.7 74.1 37.05 73.35L58.05 61.2C58.05 61.2 58.95 60.6 59.1 60.6C59.25 60.45 59.25 60.45 59.4 60.3C60.6 59.25 61.35 57.6 61.2 55.8V50.25V50.1V37.35L60.9 24Z" fill="#FD7268"/>
</svg>
