<svg width="13" height="13" viewBox="0 0 13 13" fill="none" xmlns="http://www.w3.org/2000/svg">
<circle cx="6.5" cy="6.5" r="6" stroke="#0A2463"/>
<path d="M5.688 7.383V7.059C5.688 6.759 5.751 6.507 5.877 6.303C6.003 6.099 6.219 5.886 6.525 5.664C6.795 5.472 6.987 5.307 7.101 5.169C7.221 5.025 7.281 4.857 7.281 4.665C7.281 4.473 7.209 4.329 7.065 4.233C6.927 4.131 6.732 4.08 6.48 4.08C6.228 4.08 5.979 4.119 5.733 4.197C5.487 4.275 5.235 4.38 4.977 4.512L4.5 3.549C4.794 3.387 5.112 3.255 5.454 3.153C5.796 3.051 6.171 3 6.579 3C7.203 3 7.686 3.15 8.028 3.45C8.376 3.75 8.55 4.131 8.55 4.593C8.55 4.839 8.511 5.052 8.433 5.232C8.355 5.412 8.238 5.58 8.082 5.736C7.926 5.886 7.731 6.048 7.497 6.222C7.323 6.348 7.188 6.456 7.092 6.546C6.996 6.636 6.93 6.723 6.894 6.807C6.864 6.891 6.849 6.996 6.849 7.122V7.383H5.688ZM5.544 8.886C5.544 8.61 5.619 8.418 5.769 8.31C5.919 8.196 6.102 8.139 6.318 8.139C6.528 8.139 6.708 8.196 6.858 8.31C7.008 8.418 7.083 8.61 7.083 8.886C7.083 9.15 7.008 9.342 6.858 9.462C6.708 9.576 6.528 9.633 6.318 9.633C6.102 9.633 5.919 9.576 5.769 9.462C5.619 9.342 5.544 9.15 5.544 8.886Z" fill="#0A2463"/>
</svg>
