<svg width="13" height="13" viewBox="0 0 13 13" fill="none" xmlns="http://www.w3.org/2000/svg">
<circle cx="6.5" cy="6.5" r="6.5" fill="#0A2463"/>
<path d="M8.44946 6.47852C8.44946 7.08716 8.32751 7.59473 8.08362 8.00122C7.83972 8.40771 7.49365 8.68787 7.04541 8.84167L8.19897 10.0414H7.32886L6.39612 8.95374L6.22803 8.96033C5.51831 8.96033 4.96899 8.7439 4.58008 8.31104C4.19336 7.87598 4 7.26294 4 6.47192C4 5.6875 4.19226 5.07996 4.57678 4.64929C4.9635 4.21643 5.51611 4 6.23462 4C6.93335 4 7.47717 4.21973 7.86609 4.65918C8.255 5.09644 8.44946 5.70288 8.44946 6.47852ZM4.6394 6.47852C4.6394 7.11572 4.77454 7.60132 5.0448 7.9353C5.31506 8.26929 5.70947 8.43628 6.22803 8.43628C6.74438 8.43628 7.1366 8.27148 7.40466 7.94189C7.67273 7.6123 7.80676 7.12451 7.80676 6.47852C7.80676 5.83472 7.67383 5.35022 7.40796 5.02502C7.14209 4.69763 6.75098 4.53394 6.23462 4.53394C5.71167 4.53394 5.31506 4.69983 5.0448 5.03162C4.77454 5.36121 4.6394 5.84351 4.6394 6.47852Z" fill="white"/>
</svg>
