<svg width="20" height="20" viewBox="0 0 20 20" fill="none" xmlns="http://www.w3.org/2000/svg">
<path d="M13.7143 5.34146H11.4286C11.4286 4.60178 10.7877 4 10 4C9.21229 4 8.57143 4.60178 8.57143 5.34146H6.28571C6.128 5.34146 6 5.46166 6 5.60976V6.41463C6 6.56273 6.128 6.68293 6.28571 6.68293H6.42857V14.061C6.42857 14.5786 6.87714 15 7.42857 15H12.5714C13.1227 15 13.5714 14.5786 13.5714 14.061V6.68293H13.7143C13.872 6.68293 14 6.56273 14 6.41463V5.60976C14 5.46166 13.872 5.34146 13.7143 5.34146ZM10 4.67073C10.3946 4.67073 10.7143 4.97109 10.7143 5.34146H9.28571C9.28571 4.97109 9.60557 4.67073 10 4.67073ZM12.8571 14.061C12.8571 14.2091 12.7291 14.3293 12.5714 14.3293H7.42857C7.27086 14.3293 7.14286 14.2091 7.14286 14.061V6.68293H12.8571V14.061Z" fill="#0A2463"/>
<path d="M11.7857 13.6586C11.7857 13.8067 11.6577 13.9269 11.5 13.9269H11.3571C11.1993 13.9269 11.0714 13.8067 11.0714 13.6586V7.48778C11.0714 7.33968 11.1993 7.21948 11.3571 7.21948H11.5C11.6577 7.21948 11.7857 7.33968 11.7857 7.48778V13.6586Z" fill="#0A2463"/>
<path d="M10.3572 13.6586C10.3572 13.8067 10.2292 13.9269 10.0715 13.9269H9.9286C9.77074 13.9269 9.64288 13.8067 9.64288 13.6586V7.48778C9.64288 7.33968 9.77074 7.21948 9.9286 7.21948H10.0715C10.2292 7.21948 10.3572 7.33968 10.3572 7.48778V13.6586Z" fill="#0A2463"/>
<path d="M8.92858 13.6586C8.92858 13.8067 8.80058 13.9269 8.64287 13.9269H8.50001C8.34215 13.9269 8.21429 13.8067 8.21429 13.6586V7.48778C8.21429 7.33968 8.34215 7.21948 8.50001 7.21948H8.64287C8.80058 7.21948 8.92858 7.33968 8.92858 7.48778V13.6586Z" fill="#0A2463"/>
</svg>
