<svg width="96" height="123" viewBox="0 0 96 123" fill="none" xmlns="http://www.w3.org/2000/svg">
<path d="M52.4025 3.50632C49.7315 1.74588 46.2685 1.74587 43.5975 3.50632L5.59749 28.5518C3.35167 30.032 2 32.5417 2 35.2314V87.5349C2 90.2135 3.34056 92.7144 5.57126 94.1972L43.5611 119.451C46.2511 121.239 49.7524 121.234 52.4373 119.438L90.1962 94.1847C92.4055 92.7072 93.7367 90.2289 93.7487 87.5711L93.9853 35.258C93.9975 32.5554 92.6444 30.0294 90.3879 28.5421L52.4025 3.50632Z" fill="#0A2463" stroke="#0A2463" stroke-width="4"/>
<path d="M72.9681 44.0888C75.5024 45.7633 78.9144 45.0663 80.5888 42.5319C82.2633 39.9976 81.5663 36.5856 79.0319 34.9112L72.9681 44.0888ZM48.5632 21.3721L45.5313 25.961V25.961L48.5632 21.3721ZM47.4443 21.3833L50.5668 25.9109L50.5668 25.9109L47.4443 21.3833ZM15.8775 36.4723C13.3769 38.1969 12.7478 41.622 14.4723 44.1225C16.1969 46.6231 19.622 47.2522 22.1225 45.5277L15.8775 36.4723ZM79.0319 34.9112L51.5952 16.7833L45.5313 25.961L72.9681 44.0888L79.0319 34.9112ZM44.3217 16.8556L15.8775 36.4723L22.1225 45.5277L50.5668 25.9109L44.3217 16.8556ZM51.5952 16.7833C49.3829 15.3216 46.5045 15.3502 44.3217 16.8556L50.5668 25.9109C49.0556 26.9531 47.0629 26.9729 45.5313 25.961L51.5952 16.7833Z" fill="#F5EEEB"/>
<path d="M48.5 100V62.0604C48.5 61.3972 48.1712 60.7771 47.6223 60.405L19 41V80.4546C19 80.7946 19.1727 81.1112 19.4585 81.2953L48.5 100ZM48.5 100L76.5547 81.2969C76.8329 81.1114 77 80.7992 77 80.4648V41" stroke="#F5EEEB" stroke-width="11" stroke-linecap="round" stroke-linejoin="round"/>
</svg>
