<svg width="315" height="75" viewBox="0 0 315 75" fill="none" xmlns="http://www.w3.org/2000/svg">
<path d="M99.9334 28.7C100.213 28.7 100.423 28.79 100.563 28.97C100.723 29.13 100.803 29.36 100.803 29.66V49.19C100.803 49.47 100.723 49.7 100.563 49.88C100.403 50.06 100.183 50.15 99.9034 50.15C99.6034 50.15 99.3334 50 99.0934 49.7L85.9534 31.97V49.19C85.9534 49.47 85.8734 49.7 85.7134 49.88C85.5534 50.06 85.3434 50.15 85.0834 50.15C84.7834 50.15 84.5634 50.07 84.4234 49.91C84.2834 49.73 84.2134 49.49 84.2134 49.19V29.66C84.2134 29.38 84.2934 29.15 84.4534 28.97C84.6334 28.79 84.8734 28.7 85.1734 28.7C85.4934 28.7 85.7534 28.85 85.9534 29.15L99.0634 46.85V29.66C99.0634 29.38 99.1434 29.15 99.3034 28.97C99.4634 28.79 99.6734 28.7 99.9334 28.7ZM111.764 50.21C110.424 50.21 109.244 49.9 108.224 49.28C107.204 48.66 106.414 47.78 105.854 46.64C105.294 45.5 105.014 44.19 105.014 42.71C105.014 41.21 105.294 39.89 105.854 38.75C106.434 37.59 107.234 36.69 108.254 36.05C109.294 35.41 110.484 35.09 111.824 35.09C112.584 35.09 113.324 35.19 114.044 35.39C114.764 35.59 115.404 35.89 115.964 36.29C116.324 36.55 116.574 36.79 116.714 37.01C116.874 37.21 116.954 37.43 116.954 37.67C116.954 37.89 116.894 38.07 116.774 38.21C116.654 38.35 116.504 38.42 116.324 38.42C116.124 38.42 115.804 38.25 115.364 37.91C114.844 37.53 114.324 37.23 113.804 37.01C113.284 36.79 112.654 36.68 111.914 36.68C110.354 36.68 109.134 37.22 108.254 38.3C107.374 39.36 106.934 40.83 106.934 42.71C106.934 44.57 107.364 46.02 108.224 47.06C109.104 48.08 110.324 48.59 111.884 48.59C112.644 48.59 113.274 48.48 113.774 48.26C114.294 48.04 114.854 47.74 115.454 47.36C115.634 47.24 115.804 47.13 115.964 47.03C116.144 46.93 116.284 46.88 116.384 46.88C116.584 46.88 116.744 46.95 116.864 47.09C116.984 47.23 117.044 47.4 117.044 47.6C117.044 47.84 116.974 48.05 116.834 48.23C116.694 48.41 116.424 48.64 116.024 48.92C115.484 49.32 114.824 49.64 114.044 49.88C113.284 50.1 112.524 50.21 111.764 50.21ZM131.042 35.15C131.322 35.15 131.542 35.24 131.702 35.42C131.882 35.58 131.972 35.8 131.972 36.08V49.22C131.972 49.5 131.882 49.73 131.702 49.91C131.542 50.07 131.322 50.15 131.042 50.15C130.782 50.15 130.572 50.07 130.412 49.91C130.252 49.73 130.172 49.5 130.172 49.22V47.39C129.712 48.31 129.052 49.01 128.192 49.49C127.352 49.97 126.392 50.21 125.312 50.21C123.592 50.21 122.292 49.74 121.412 48.8C120.552 47.84 120.122 46.43 120.122 44.57V36.08C120.122 35.8 120.202 35.58 120.362 35.42C120.542 35.24 120.772 35.15 121.052 35.15C121.332 35.15 121.552 35.24 121.712 35.42C121.872 35.58 121.952 35.8 121.952 36.08V44.45C121.952 45.87 122.232 46.92 122.792 47.6C123.372 48.26 124.272 48.59 125.492 48.59C126.892 48.59 128.012 48.15 128.852 47.27C129.712 46.37 130.142 45.18 130.142 43.7V36.08C130.142 35.8 130.222 35.58 130.382 35.42C130.542 35.24 130.762 35.15 131.042 35.15ZM143.604 35.09C144.884 35.09 146.014 35.4 146.994 36.02C147.974 36.64 148.734 37.52 149.274 38.66C149.814 39.78 150.084 41.09 150.084 42.59C150.084 44.11 149.814 45.45 149.274 46.61C148.734 47.75 147.974 48.64 146.994 49.28C146.014 49.9 144.884 50.21 143.604 50.21C142.424 50.21 141.404 49.96 140.544 49.46C139.684 48.94 139.034 48.19 138.594 47.21V49.19C138.594 49.47 138.514 49.7 138.354 49.88C138.194 50.04 137.974 50.12 137.694 50.12C137.414 50.12 137.184 50.04 137.004 49.88C136.844 49.7 136.764 49.47 136.764 49.19V29.63C136.764 29.35 136.844 29.13 137.004 28.97C137.184 28.79 137.414 28.7 137.694 28.7C137.974 28.7 138.194 28.79 138.354 28.97C138.514 29.13 138.594 29.35 138.594 29.63V38.09C139.034 37.11 139.684 36.37 140.544 35.87C141.404 35.35 142.424 35.09 143.604 35.09ZM143.364 48.59C144.884 48.59 146.064 48.06 146.904 47C147.764 45.94 148.194 44.47 148.194 42.59C148.194 40.71 147.764 39.26 146.904 38.24C146.064 37.2 144.874 36.68 143.334 36.68C141.814 36.68 140.644 37.2 139.824 38.24C139.004 39.28 138.594 40.75 138.594 42.65C138.594 44.55 139.004 46.02 139.824 47.06C140.664 48.08 141.844 48.59 143.364 48.59ZM165.122 46.88C165.302 46.88 165.452 46.96 165.572 47.12C165.712 47.26 165.782 47.43 165.782 47.63C165.782 48.07 165.442 48.5 164.762 48.92C163.322 49.78 161.802 50.21 160.202 50.21C157.982 50.21 156.232 49.54 154.952 48.2C153.672 46.86 153.032 45.02 153.032 42.68C153.032 41.18 153.312 39.86 153.872 38.72C154.452 37.56 155.252 36.67 156.272 36.05C157.312 35.41 158.502 35.09 159.842 35.09C161.722 35.09 163.202 35.7 164.282 36.92C165.382 38.12 165.932 39.78 165.932 41.9C165.932 42.26 165.852 42.53 165.692 42.71C165.532 42.87 165.272 42.95 164.912 42.95H154.922C154.982 44.79 155.462 46.19 156.362 47.15C157.262 48.11 158.532 48.59 160.172 48.59C161.032 48.59 161.752 48.48 162.332 48.26C162.912 48.02 163.532 47.71 164.192 47.33C164.632 47.03 164.942 46.88 165.122 46.88ZM159.842 36.59C158.442 36.59 157.322 37.03 156.482 37.91C155.642 38.79 155.142 40.02 154.982 41.6H164.252C164.212 40 163.812 38.77 163.052 37.91C162.292 37.03 161.222 36.59 159.842 36.59ZM178.631 50C178.351 50 178.111 49.91 177.911 49.73C177.731 49.55 177.641 49.33 177.641 49.07V29.78C177.641 29.52 177.731 29.3 177.911 29.12C178.111 28.94 178.351 28.85 178.631 28.85H184.451C187.791 28.85 190.371 29.76 192.191 31.58C194.031 33.4 194.951 36.01 194.951 39.41C194.951 42.81 194.031 45.43 192.191 47.27C190.371 49.09 187.791 50 184.451 50H178.631ZM184.361 48.38C190.121 48.38 193.001 45.39 193.001 39.41C193.001 33.45 190.121 30.47 184.361 30.47H179.501V48.38H184.361ZM200.184 50.15C199.904 50.15 199.674 50.07 199.494 49.91C199.334 49.75 199.254 49.52 199.254 49.22V36.08C199.254 35.78 199.334 35.55 199.494 35.39C199.674 35.23 199.904 35.15 200.184 35.15C200.464 35.15 200.684 35.23 200.844 35.39C201.004 35.55 201.084 35.78 201.084 36.08V49.22C201.084 49.52 201.004 49.75 200.844 49.91C200.684 50.07 200.464 50.15 200.184 50.15ZM200.184 31.76C199.784 31.76 199.454 31.64 199.194 31.4C198.954 31.16 198.834 30.85 198.834 30.47C198.834 30.07 198.954 29.75 199.194 29.51C199.454 29.27 199.784 29.15 200.184 29.15C200.584 29.15 200.904 29.27 201.144 29.51C201.404 29.75 201.534 30.07 201.534 30.47C201.534 30.85 201.404 31.16 201.144 31.4C200.904 31.64 200.584 31.76 200.184 31.76ZM210.615 50.21C209.775 50.21 208.945 50.1 208.125 49.88C207.325 49.64 206.615 49.32 205.995 48.92C205.615 48.66 205.345 48.44 205.185 48.26C205.045 48.06 204.975 47.84 204.975 47.6C204.975 47.4 205.035 47.23 205.155 47.09C205.295 46.95 205.455 46.88 205.635 46.88C205.815 46.88 206.125 47.03 206.565 47.33C207.145 47.71 207.735 48.02 208.335 48.26C208.955 48.5 209.725 48.62 210.645 48.62C211.825 48.62 212.745 48.41 213.405 47.99C214.065 47.55 214.395 46.93 214.395 46.13C214.395 45.65 214.275 45.26 214.035 44.96C213.795 44.64 213.395 44.37 212.835 44.15C212.275 43.91 211.475 43.68 210.435 43.46C208.655 43.06 207.385 42.55 206.625 41.93C205.885 41.29 205.515 40.44 205.515 39.38C205.515 38.1 206.015 37.07 207.015 36.29C208.015 35.49 209.315 35.09 210.915 35.09C211.695 35.09 212.435 35.19 213.135 35.39C213.855 35.59 214.475 35.88 214.995 36.26C215.695 36.74 216.045 37.21 216.045 37.67C216.045 37.87 215.975 38.05 215.835 38.21C215.715 38.35 215.565 38.42 215.385 38.42C215.185 38.42 214.875 38.26 214.455 37.94C213.915 37.56 213.375 37.26 212.835 37.04C212.315 36.8 211.645 36.68 210.825 36.68C209.785 36.68 208.955 36.92 208.335 37.4C207.715 37.86 207.405 38.49 207.405 39.29C207.405 39.75 207.505 40.13 207.705 40.43C207.925 40.73 208.285 41 208.785 41.24C209.305 41.46 210.045 41.68 211.005 41.9C212.385 42.22 213.445 42.56 214.185 42.92C214.925 43.28 215.455 43.71 215.775 44.21C216.095 44.71 216.255 45.35 216.255 46.13C216.255 47.35 215.735 48.34 214.695 49.1C213.675 49.84 212.315 50.21 210.615 50.21ZM226.051 50.21C224.711 50.21 223.531 49.9 222.511 49.28C221.491 48.66 220.701 47.78 220.141 46.64C219.581 45.5 219.301 44.19 219.301 42.71C219.301 41.21 219.581 39.89 220.141 38.75C220.721 37.59 221.521 36.69 222.541 36.05C223.581 35.41 224.771 35.09 226.111 35.09C226.871 35.09 227.611 35.19 228.331 35.39C229.051 35.59 229.691 35.89 230.251 36.29C230.611 36.55 230.861 36.79 231.001 37.01C231.161 37.21 231.241 37.43 231.241 37.67C231.241 37.89 231.181 38.07 231.061 38.21C230.941 38.35 230.791 38.42 230.611 38.42C230.411 38.42 230.091 38.25 229.651 37.91C229.131 37.53 228.611 37.23 228.091 37.01C227.571 36.79 226.941 36.68 226.201 36.68C224.641 36.68 223.421 37.22 222.541 38.3C221.661 39.36 221.221 40.83 221.221 42.71C221.221 44.57 221.651 46.02 222.511 47.06C223.391 48.08 224.611 48.59 226.171 48.59C226.931 48.59 227.561 48.48 228.061 48.26C228.581 48.04 229.141 47.74 229.741 47.36C229.921 47.24 230.091 47.13 230.251 47.03C230.431 46.93 230.571 46.88 230.671 46.88C230.871 46.88 231.031 46.95 231.151 47.09C231.271 47.23 231.331 47.4 231.331 47.6C231.331 47.84 231.261 48.05 231.121 48.23C230.981 48.41 230.711 48.64 230.311 48.92C229.771 49.32 229.111 49.64 228.331 49.88C227.571 50.1 226.811 50.21 226.051 50.21ZM240.259 50.21C238.919 50.21 237.739 49.9 236.719 49.28C235.719 48.66 234.939 47.78 234.379 46.64C233.819 45.5 233.539 44.17 233.539 42.65C233.539 41.13 233.819 39.8 234.379 38.66C234.939 37.52 235.719 36.64 236.719 36.02C237.739 35.4 238.919 35.09 240.259 35.09C241.579 35.09 242.749 35.4 243.769 36.02C244.789 36.64 245.569 37.52 246.109 38.66C246.669 39.8 246.949 41.13 246.949 42.65C246.949 44.17 246.669 45.5 246.109 46.64C245.569 47.78 244.789 48.66 243.769 49.28C242.749 49.9 241.579 50.21 240.259 50.21ZM240.229 48.59C241.769 48.59 242.959 48.08 243.799 47.06C244.639 46.04 245.059 44.57 245.059 42.65C245.059 40.77 244.629 39.31 243.769 38.27C242.929 37.21 241.759 36.68 240.259 36.68C238.739 36.68 237.559 37.21 236.719 38.27C235.879 39.31 235.459 40.77 235.459 42.65C235.459 44.57 235.869 46.04 236.689 47.06C237.509 48.08 238.689 48.59 240.229 48.59ZM261.351 35.69C261.511 35.33 261.771 35.15 262.131 35.15C262.351 35.15 262.551 35.23 262.731 35.39C262.911 35.55 263.001 35.74 263.001 35.96C263.001 36.1 262.971 36.23 262.911 36.35L256.971 49.4C256.871 49.62 256.721 49.79 256.521 49.91C256.341 50.03 256.141 50.09 255.921 50.09C255.681 50.09 255.461 50.03 255.261 49.91C255.081 49.79 254.941 49.62 254.841 49.4L248.871 36.35C248.811 36.23 248.781 36.11 248.781 35.99C248.781 35.75 248.881 35.55 249.081 35.39C249.301 35.21 249.531 35.12 249.771 35.12C250.151 35.12 250.411 35.3 250.551 35.66L255.951 47.78L261.351 35.69ZM276.948 46.88C277.128 46.88 277.278 46.96 277.398 47.12C277.538 47.26 277.608 47.43 277.608 47.63C277.608 48.07 277.268 48.5 276.588 48.92C275.148 49.78 273.628 50.21 272.028 50.21C269.808 50.21 268.058 49.54 266.778 48.2C265.498 46.86 264.858 45.02 264.858 42.68C264.858 41.18 265.138 39.86 265.698 38.72C266.278 37.56 267.078 36.67 268.098 36.05C269.138 35.41 270.328 35.09 271.668 35.09C273.548 35.09 275.028 35.7 276.108 36.92C277.208 38.12 277.758 39.78 277.758 41.9C277.758 42.26 277.678 42.53 277.518 42.71C277.358 42.87 277.098 42.95 276.738 42.95H266.748C266.808 44.79 267.288 46.19 268.188 47.15C269.088 48.11 270.358 48.59 271.998 48.59C272.858 48.59 273.578 48.48 274.158 48.26C274.738 48.02 275.358 47.71 276.018 47.33C276.458 47.03 276.768 46.88 276.948 46.88ZM271.668 36.59C270.268 36.59 269.148 37.03 268.308 37.91C267.468 38.79 266.968 40.02 266.808 41.6H276.078C276.038 40 275.638 38.77 274.878 37.91C274.118 37.03 273.048 36.59 271.668 36.59ZM288.359 35.15C288.739 35.13 289.009 35.18 289.169 35.3C289.329 35.42 289.409 35.62 289.409 35.9C289.409 36.4 289.109 36.68 288.509 36.74L287.609 36.83C286.189 36.97 285.129 37.48 284.429 38.36C283.749 39.24 283.409 40.27 283.409 41.45V49.22C283.409 49.52 283.329 49.75 283.169 49.91C283.009 50.07 282.789 50.15 282.509 50.15C282.229 50.15 281.999 50.07 281.819 49.91C281.659 49.75 281.579 49.52 281.579 49.22V36.08C281.579 35.78 281.659 35.55 281.819 35.39C281.999 35.23 282.229 35.15 282.509 35.15C282.769 35.15 282.979 35.23 283.139 35.39C283.299 35.55 283.379 35.77 283.379 36.05V38C284.199 36.28 285.719 35.34 287.939 35.18L288.359 35.15ZM303.333 35.69C303.493 35.33 303.753 35.15 304.113 35.15C304.333 35.15 304.533 35.23 304.713 35.39C304.893 35.55 304.983 35.74 304.983 35.96C304.983 36.1 304.953 36.23 304.893 36.35L296.403 54.98C296.243 55.32 295.983 55.49 295.623 55.49C295.403 55.49 295.203 55.42 295.023 55.28C294.863 55.14 294.783 54.96 294.783 54.74C294.783 54.62 294.813 54.5 294.873 54.38L297.003 49.73L290.853 36.35C290.793 36.23 290.763 36.11 290.763 35.99C290.763 35.75 290.863 35.55 291.063 35.39C291.283 35.21 291.513 35.12 291.753 35.12C292.133 35.12 292.393 35.3 292.533 35.66L297.933 47.78L303.333 35.69Z" fill="#0A2463"/>
<g clip-path="url(#clip0)">
<g filter="url(#filter0_d)">
<path d="M31.1357 6.10585L8.38389 19.1072C6.55328 20.137 5.37646 22.0679 5.37646 24.2563V49.8728C5.37646 51.9324 6.55328 53.992 8.38389 55.0218L31.005 67.8945C32.8356 68.9243 35.1892 68.9243 37.0198 67.8945L59.7716 54.8931C61.6022 53.8633 62.7791 51.9324 62.7791 49.7441L62.9098 24.1275C62.9098 22.0679 61.733 20.0083 59.9024 18.9785L37.2813 6.10585C35.32 5.07604 32.9663 5.07604 31.1357 6.10585Z" fill="white"/>
</g>
<path d="M31.0049 40.9909V62.4882L11.9143 51.6752C10.6067 50.9028 9.69141 49.4868 9.69141 47.9421V26.4448L14.791 29.2768L28.782 37.2578C30.2204 38.0302 31.0049 39.4462 31.0049 40.9909Z" fill="#FD7268"/>
<path d="M57.941 25.9297C57.941 24.385 57.1564 22.969 55.8488 22.1967L46.4343 16.7902L40.681 13.4433C40.681 13.4433 40.681 13.4433 40.5502 13.4433L36.7582 11.255C36.6275 11.1262 36.366 10.9975 36.2352 10.9975L32.4432 8.80915C30.8741 7.77934 28.8935 7.47783 27.3245 8.25018L26.4803 8.80915L8.38383 19.1073C7.20701 19.7509 6.55322 20.9094 6.55322 20.9094C7.99156 20.1371 9.95292 20.2658 11.2605 21.1669L20.675 26.4447L25.9054 29.4054L26.8207 29.9203L34.4046 34.297C35.7122 35.0693 36.6275 36.4853 36.6275 38.03V48.5856V53.9921V64.4189C36.7582 66.0923 35.9737 67.8945 34.5354 68.7956C34.5354 68.7956 35.7122 68.7956 36.889 68.152L55.1951 57.7251C55.1951 57.7251 55.9796 57.2102 56.1104 57.2102C56.2411 57.0815 56.2411 57.0815 56.3719 56.9528C57.4179 56.0517 58.0717 54.6357 57.941 53.091V48.3281V48.1994V37.2577V25.9297Z" fill="#FD7268"/>
</g>
<defs>
<filter id="filter0_d" x="1.37646" y="1.3335" width="65.5333" height="71.3333" filterUnits="userSpaceOnUse" color-interpolation-filters="sRGB">
<feFlood flood-opacity="0" result="BackgroundImageFix"/>
<feColorMatrix in="SourceAlpha" type="matrix" values="0 0 0 0 0 0 0 0 0 0 0 0 0 0 0 0 0 0 127 0"/>
<feOffset/>
<feGaussianBlur stdDeviation="2"/>
<feColorMatrix type="matrix" values="0 0 0 0 0 0 0 0 0 0 0 0 0 0 0 0 0 0 0.25 0"/>
<feBlend mode="normal" in2="BackgroundImageFix" result="effect1_dropShadow"/>
<feBlend mode="normal" in="SourceGraphic" in2="effect1_dropShadow" result="shape"/>
</filter>
<clipPath id="clip0">
<rect width="65" height="70" fill="white" transform="translate(2 2)"/>
</clipPath>
</defs>
</svg>
