<svg width="272" height="100" viewBox="0 0 272 100" fill="none" xmlns="http://www.w3.org/2000/svg">
<path d="M133.959 33.167C134.611 33.167 135.129 33.3891 135.514 33.8332C135.928 34.2478 136.136 34.7956 136.136 35.4766V62.615C136.136 63.2961 135.928 63.8587 135.514 64.3029C135.099 64.7174 134.566 64.9247 133.915 64.9247C133.145 64.9247 132.553 64.6286 132.138 64.0364L114.727 41.0731V62.615C114.727 63.2961 114.52 63.8587 114.105 64.3029C113.72 64.7174 113.202 64.9247 112.55 64.9247C111.899 64.9247 111.381 64.7174 110.996 64.3029C110.611 63.8883 110.418 63.3257 110.418 62.615V35.4766C110.418 34.7956 110.626 34.2478 111.04 33.8332C111.455 33.3891 111.988 33.167 112.639 33.167C113.409 33.167 114.001 33.4631 114.416 34.0553L131.827 57.063V35.4766C131.827 34.7956 132.02 34.2478 132.405 33.8332C132.789 33.3891 133.308 33.167 133.959 33.167Z" fill="#0A2463"/>
<path d="M153.527 65.0135C151.424 65.0135 149.574 64.5546 147.975 63.6366C146.405 62.7187 145.176 61.4158 144.288 59.728C143.429 58.0402 143 56.0858 143 53.865C143 51.6146 143.444 49.6307 144.332 47.9132C145.25 46.1958 146.524 44.8633 148.152 43.9158C149.781 42.9682 151.646 42.4944 153.749 42.4944C154.874 42.4944 155.999 42.6573 157.124 42.983C158.279 43.3087 159.301 43.7529 160.189 44.3155C161.137 44.9669 161.61 45.722 161.61 46.5807C161.61 47.0841 161.477 47.5135 161.211 47.8688C160.944 48.1945 160.604 48.3574 160.189 48.3574C159.923 48.3574 159.656 48.2982 159.39 48.1797C159.123 48.0317 158.783 47.8244 158.368 47.5579C157.628 47.0841 156.932 46.7288 156.28 46.4919C155.659 46.2254 154.904 46.0922 154.015 46.0922C152.002 46.0922 150.432 46.7732 149.307 48.1353C148.212 49.4974 147.664 51.3925 147.664 53.8206C147.664 56.2487 148.212 58.129 149.307 59.4615C150.403 60.7644 151.957 61.4158 153.971 61.4158C154.859 61.4158 155.644 61.2826 156.325 61.0161C157.006 60.7496 157.702 60.3942 158.412 59.9501C158.738 59.7428 159.064 59.5651 159.39 59.4171C159.715 59.269 160.011 59.195 160.278 59.195C160.693 59.195 161.033 59.3726 161.3 59.728C161.566 60.0537 161.699 60.4683 161.699 60.9716C161.699 61.3862 161.581 61.7711 161.344 62.1265C161.137 62.4522 160.767 62.7927 160.234 63.148C159.345 63.7403 158.309 64.1992 157.124 64.5249C155.94 64.8507 154.741 65.0135 153.527 65.0135Z" fill="#0A2463"/>
<path d="M182.504 42.5833C183.185 42.5833 183.718 42.7757 184.103 43.1607C184.517 43.5456 184.725 44.0786 184.725 44.7597V62.8371C184.725 63.459 184.517 63.9623 184.103 64.3473C183.688 64.7322 183.14 64.9247 182.459 64.9247C181.838 64.9247 181.334 64.747 180.949 64.3917C180.564 64.0068 180.372 63.5034 180.372 62.8815V61.1937C179.691 62.4374 178.743 63.3849 177.529 64.0364C176.345 64.6878 175.012 65.0135 173.532 65.0135C168.261 65.0135 165.626 62.1117 165.626 56.3079V44.7597C165.626 44.0786 165.818 43.5456 166.203 43.1607C166.618 42.7757 167.18 42.5833 167.891 42.5833C168.572 42.5833 169.105 42.7757 169.49 43.1607C169.904 43.5456 170.112 44.0786 170.112 44.7597V56.2635C170.112 58.0105 170.467 59.2986 171.178 60.1277C171.888 60.9568 172.984 61.3714 174.464 61.3714C176.212 61.3714 177.603 60.8088 178.64 59.6836C179.706 58.5583 180.239 57.063 180.239 55.1975V44.7597C180.239 44.1082 180.446 43.59 180.86 43.2051C181.275 42.7905 181.823 42.5833 182.504 42.5833Z" fill="#0A2463"/>
<path d="M202.639 42.4944C204.534 42.4944 206.207 42.9534 207.658 43.8713C209.109 44.7893 210.235 46.0922 211.034 47.78C211.863 49.4678 212.278 51.4369 212.278 53.6874C212.278 55.9082 211.863 57.8773 211.034 59.5947C210.235 61.3122 209.095 62.6447 207.614 63.5922C206.163 64.5398 204.505 65.0135 202.639 65.0135C201.011 65.0135 199.575 64.673 198.331 63.9919C197.087 63.2813 196.14 62.2745 195.488 60.9716V62.7483C195.488 63.3997 195.281 63.9327 194.867 64.3473C194.482 64.7322 193.949 64.9247 193.268 64.9247C192.586 64.9247 192.039 64.7322 191.624 64.3473C191.21 63.9327 191.002 63.3997 191.002 62.7483V35.299C191.002 34.6475 191.21 34.1293 191.624 33.7444C192.068 33.3595 192.631 33.167 193.312 33.167C193.963 33.167 194.482 33.3595 194.867 33.7444C195.281 34.0997 195.488 34.5883 195.488 35.2101V46.5807C196.14 45.2779 197.087 44.2711 198.331 43.5604C199.575 42.8498 201.011 42.4944 202.639 42.4944ZM201.573 61.4602C203.498 61.4602 204.993 60.7792 206.059 59.4171C207.155 58.055 207.703 56.1451 207.703 53.6874C207.703 51.2593 207.17 49.3938 206.104 48.0909C205.038 46.7584 203.528 46.0922 201.573 46.0922C199.619 46.0922 198.109 46.7584 197.043 48.0909C196.007 49.4234 195.488 51.3185 195.488 53.7762C195.488 56.2339 196.007 58.129 197.043 59.4615C198.109 60.794 199.619 61.4602 201.573 61.4602Z" fill="#0A2463"/>
<path d="M234.211 59.2394C234.626 59.2394 234.966 59.4023 235.233 59.728C235.499 60.0537 235.633 60.4683 235.633 60.9716C235.633 61.8304 235.1 62.5558 234.034 63.148C232.997 63.7403 231.857 64.1992 230.614 64.5249C229.4 64.8507 228.23 65.0135 227.105 65.0135C223.67 65.0135 220.961 64.0216 218.977 62.0376C216.993 60.0241 216.001 57.2851 216.001 53.8206C216.001 51.5998 216.43 49.6307 217.289 47.9132C218.177 46.1958 219.406 44.8633 220.975 43.9158C222.574 42.9682 224.381 42.4944 226.394 42.4944C229.296 42.4944 231.591 43.4272 233.279 45.2927C234.966 47.1581 235.81 49.6751 235.81 52.8434C235.81 54.0279 235.277 54.6201 234.211 54.6201H220.487C220.783 59.2098 222.989 61.5046 227.105 61.5046C228.2 61.5046 229.148 61.3566 229.947 61.0605C230.747 60.7644 231.591 60.3794 232.479 59.9056C232.568 59.8464 232.805 59.728 233.19 59.5503C233.604 59.343 233.945 59.2394 234.211 59.2394ZM226.483 45.7812C224.766 45.7812 223.389 46.329 222.352 47.4246C221.316 48.5202 220.694 50.06 220.487 52.0439H231.946C231.857 50.0304 231.339 48.4906 230.392 47.4246C229.474 46.329 228.171 45.7812 226.483 45.7812Z" fill="#0A2463"/>
<g filter="url(#filter0_d)">
<path d="M42.1248 4.06439L11.2575 21.9816C8.77397 23.4008 7.17741 26.0618 7.17741 29.0775L7 64.3797C7 67.2181 8.59659 70.0565 11.0802 71.4757L41.77 89.2155C44.2536 90.6347 47.4468 90.6347 49.9303 89.2155L80.7976 71.2983C83.2812 69.8791 84.8778 67.2181 84.8778 64.2024L85.0552 28.9001C85.0552 26.0618 83.4586 23.2234 80.975 21.8042L50.2851 4.06439C47.8016 2.6452 44.6084 2.6452 42.1248 4.06439Z" fill="white"/>
<path d="M78.4916 31.3836C78.4916 29.2549 77.4272 27.3035 75.6532 26.2391L62.8805 18.7884L55.075 14.176C55.075 14.176 55.075 14.176 54.8976 14.176L49.7531 11.1603C49.5757 10.9829 49.2209 10.8055 49.0435 10.8055L43.3667 7.78969C41.2379 6.3705 38.7544 6.1931 36.6256 7.25749L35.7386 7.78969L11.0803 22.1589C9.48369 23.0459 8.59668 24.6425 8.59668 24.6425C10.5481 23.5781 13.209 23.7555 14.983 24.9973L27.7557 32.2706L34.8516 36.3508L36.0934 37.0604L46.3825 43.0919C48.1565 44.1563 49.3983 46.1077 49.3983 48.2365V62.7831V82.1195L75.2984 67.0407C77.0724 65.9763 78.1368 64.0249 78.1368 62.0735V46.9947L78.4916 31.3836Z" fill="#0A2463"/>
<path d="M41.7705 84.2485V78.2169V51.962C41.7705 49.8332 40.7061 47.8819 38.7547 46.8175L19.7731 35.8188L12.8546 31.916V54.623V55.1552V61.7189C12.8546 61.8963 12.8546 62.0737 12.8546 62.4285V68.1052C12.6772 70.5888 13.7416 72.895 15.6929 74.1368L16.5799 74.669L41.4157 89.0382C43.367 90.1026 44.6088 90.28 44.6088 90.28C42.6575 88.8608 41.5931 86.5546 41.7705 84.2485Z" fill="#0A2463"/>
</g>
<defs>
<filter id="filter0_d" x="0" y="0" width="90.0552" height="99.28" filterUnits="userSpaceOnUse" color-interpolation-filters="sRGB">
<feFlood flood-opacity="0" result="BackgroundImageFix"/>
<feColorMatrix in="SourceAlpha" type="matrix" values="0 0 0 0 0 0 0 0 0 0 0 0 0 0 0 0 0 0 127 0"/>
<feOffset dx="-1" dy="3"/>
<feGaussianBlur stdDeviation="3"/>
<feColorMatrix type="matrix" values="0 0 0 0 0 0 0 0 0 0 0 0 0 0 0 0 0 0 0.13 0"/>
<feBlend mode="normal" in2="BackgroundImageFix" result="effect1_dropShadow"/>
<feBlend mode="normal" in="SourceGraphic" in2="effect1_dropShadow" result="shape"/>
</filter>
</defs>
</svg>
