<svg width="267" height="98" viewBox="0 0 267 98" fill="none" xmlns="http://www.w3.org/2000/svg">
<path d="M128.959 36.167C129.611 36.167 130.129 36.3891 130.514 36.8332C130.928 37.2478 131.136 37.7956 131.136 38.4766V65.615C131.136 66.2961 130.928 66.8587 130.514 67.3029C130.099 67.7174 129.566 67.9247 128.915 67.9247C128.145 67.9247 127.553 67.6286 127.138 67.0364L109.727 44.0731V65.615C109.727 66.2961 109.52 66.8587 109.105 67.3029C108.72 67.7174 108.202 67.9247 107.55 67.9247C106.899 67.9247 106.381 67.7174 105.996 67.3029C105.611 66.8883 105.418 66.3257 105.418 65.615V38.4766C105.418 37.7956 105.626 37.2478 106.04 36.8332C106.455 36.3891 106.988 36.167 107.639 36.167C108.409 36.167 109.001 36.4631 109.416 37.0553L126.827 60.063V38.4766C126.827 37.7956 127.02 37.2478 127.405 36.8332C127.789 36.3891 128.308 36.167 128.959 36.167Z" fill="#0A2463"/>
<path d="M139.582 57.6645C138.901 57.6645 138.383 57.5165 138.027 57.2204C137.672 56.8946 137.494 56.4505 137.494 55.8879C137.494 55.3252 137.672 54.8811 138.027 54.5554C138.383 54.2296 138.901 54.0668 139.582 54.0668H149.043C149.724 54.0668 150.242 54.2296 150.597 54.5554C150.953 54.8811 151.13 55.3252 151.13 55.8879C151.13 56.4505 150.953 56.8946 150.597 57.2204C150.242 57.5165 149.724 57.6645 149.043 57.6645H139.582Z" fill="#0A2463"/>
<path d="M166.87 68.0135C164.767 68.0135 162.916 67.5546 161.317 66.6366C159.748 65.7187 158.519 64.4158 157.631 62.728C156.772 61.0402 156.343 59.0858 156.343 56.865C156.343 54.6146 156.787 52.6307 157.675 50.9132C158.593 49.1958 159.867 47.8633 161.495 46.9158C163.124 45.9682 164.989 45.4944 167.092 45.4944C168.217 45.4944 169.342 45.6573 170.467 45.983C171.622 46.3087 172.644 46.7529 173.532 47.3155C174.48 47.9669 174.953 48.722 174.953 49.5807C174.953 50.0841 174.82 50.5135 174.554 50.8688C174.287 51.1945 173.947 51.3574 173.532 51.3574C173.265 51.3574 172.999 51.2982 172.732 51.1797C172.466 51.0317 172.125 50.8244 171.711 50.5579C170.971 50.0841 170.275 49.7288 169.623 49.4919C169.002 49.2254 168.246 49.0922 167.358 49.0922C165.345 49.0922 163.775 49.7732 162.65 51.1353C161.554 52.4974 161.007 54.3925 161.007 56.8206C161.007 59.2487 161.554 61.129 162.65 62.4615C163.746 63.7644 165.3 64.4158 167.314 64.4158C168.202 64.4158 168.987 64.2826 169.668 64.0161C170.349 63.7496 171.045 63.3942 171.755 62.9501C172.081 62.7428 172.407 62.5651 172.732 62.4171C173.058 62.269 173.354 62.195 173.621 62.195C174.035 62.195 174.376 62.3726 174.642 62.728C174.909 63.0537 175.042 63.4683 175.042 63.9716C175.042 64.3862 174.924 64.7711 174.687 65.1265C174.48 65.4522 174.109 65.7927 173.576 66.148C172.688 66.7403 171.652 67.1992 170.467 67.5249C169.283 67.8507 168.084 68.0135 166.87 68.0135Z" fill="#0A2463"/>
<path d="M195.847 45.5833C196.528 45.5833 197.061 45.7757 197.446 46.1607C197.86 46.5456 198.068 47.0786 198.068 47.7597V65.8371C198.068 66.459 197.86 66.9623 197.446 67.3473C197.031 67.7322 196.483 67.9247 195.802 67.9247C195.18 67.9247 194.677 67.747 194.292 67.3917C193.907 67.0068 193.715 66.5034 193.715 65.8815V64.1937C193.034 65.4374 192.086 66.3849 190.872 67.0364C189.688 67.6878 188.355 68.0135 186.875 68.0135C181.604 68.0135 178.968 65.1117 178.968 59.3079V47.7597C178.968 47.0786 179.161 46.5456 179.546 46.1607C179.96 45.7757 180.523 45.5833 181.234 45.5833C181.915 45.5833 182.448 45.7757 182.833 46.1607C183.247 46.5456 183.455 47.0786 183.455 47.7597V59.2635C183.455 61.0105 183.81 62.2986 184.521 63.1277C185.231 63.9568 186.327 64.3714 187.807 64.3714C189.554 64.3714 190.946 63.8088 191.982 62.6836C193.048 61.5583 193.581 60.063 193.581 58.1975V47.7597C193.581 47.1082 193.789 46.59 194.203 46.2051C194.618 45.7905 195.166 45.5833 195.847 45.5833Z" fill="#0A2463"/>
<path d="M215.982 45.4944C217.877 45.4944 219.55 45.9534 221.001 46.8713C222.452 47.7893 223.577 49.0922 224.377 50.78C225.206 52.4678 225.621 54.4369 225.621 56.6874C225.621 58.9082 225.206 60.8773 224.377 62.5947C223.577 64.3122 222.437 65.6447 220.957 66.5922C219.506 67.5398 217.848 68.0135 215.982 68.0135C214.354 68.0135 212.918 67.673 211.674 66.9919C210.43 66.2813 209.483 65.2745 208.831 63.9716V65.7483C208.831 66.3997 208.624 66.9327 208.209 67.3473C207.824 67.7322 207.291 67.9247 206.61 67.9247C205.929 67.9247 205.382 67.7322 204.967 67.3473C204.552 66.9327 204.345 66.3997 204.345 65.7483V38.299C204.345 37.6475 204.552 37.1293 204.967 36.7444C205.411 36.3595 205.974 36.167 206.655 36.167C207.306 36.167 207.824 36.3595 208.209 36.7444C208.624 37.0997 208.831 37.5883 208.831 38.2101V49.5807C209.483 48.2779 210.43 47.2711 211.674 46.5604C212.918 45.8498 214.354 45.4944 215.982 45.4944ZM214.916 64.4602C216.841 64.4602 218.336 63.7792 219.402 62.4171C220.498 61.055 221.046 59.1451 221.046 56.6874C221.046 54.2593 220.513 52.3938 219.447 51.0909C218.381 49.7584 216.871 49.0922 214.916 49.0922C212.962 49.0922 211.452 49.7584 210.386 51.0909C209.349 52.4234 208.831 54.3185 208.831 56.7762C208.831 59.2339 209.349 61.129 210.386 62.4615C211.452 63.794 212.962 64.4602 214.916 64.4602Z" fill="#0A2463"/>
<path d="M247.554 62.2394C247.969 62.2394 248.309 62.4023 248.576 62.728C248.842 63.0537 248.976 63.4683 248.976 63.9716C248.976 64.8304 248.443 65.5558 247.377 66.148C246.34 66.7403 245.2 67.1992 243.957 67.5249C242.743 67.8507 241.573 68.0135 240.448 68.0135C237.013 68.0135 234.303 67.0216 232.319 65.0376C230.336 63.0241 229.344 60.2851 229.344 56.8206C229.344 54.5998 229.773 52.6307 230.632 50.9132C231.52 49.1958 232.749 47.8633 234.318 46.9158C235.917 45.9682 237.723 45.4944 239.737 45.4944C242.639 45.4944 244.934 46.4272 246.622 48.2927C248.309 50.1581 249.153 52.6751 249.153 55.8434C249.153 57.0279 248.62 57.6201 247.554 57.6201H233.83C234.126 62.2098 236.332 64.5046 240.448 64.5046C241.543 64.5046 242.491 64.3566 243.29 64.0605C244.09 63.7644 244.934 63.3794 245.822 62.9056C245.911 62.8464 246.148 62.728 246.533 62.5503C246.947 62.343 247.288 62.2394 247.554 62.2394ZM239.826 48.7812C238.108 48.7812 236.731 49.329 235.695 50.4246C234.659 51.5202 234.037 53.06 233.83 55.0439H245.289C245.2 53.0304 244.682 51.4906 243.734 50.4246C242.817 49.329 241.514 48.7812 239.826 48.7812Z" fill="#0A2463"/>
<path fill-rule="evenodd" clip-rule="evenodd" d="M43.9236 1.83997L74.576 22.3407C76.5523 23.6625 77.7387 25.8833 77.7387 28.2608V70.3273C77.7387 72.7049 76.5523 74.9257 74.576 76.2475L43.9236 96.7482C41.5272 98.3509 38.401 98.3509 36.0046 96.7482L5.35217 76.2475C3.37586 74.9257 2.18945 72.7049 2.18945 70.3273V28.2608C2.18945 25.8833 3.37586 23.6625 5.35217 22.3407L36.0046 1.83997C38.401 0.237262 41.5272 0.237261 43.9236 1.83997Z" fill="#0A2463"/>
<path fill-rule="evenodd" clip-rule="evenodd" d="M15.1928 28.8728C16.75 28.0508 18.6343 28.1582 20.0881 29.1516L43.1389 44.903C44.8654 46.0828 45.8979 48.0389 45.8979 50.13V69.8775L58.5596 61.0595V33.0719C58.5596 30.4495 60.6854 28.3237 63.3077 28.3237C65.93 28.3237 68.0558 30.4495 68.0558 33.0719V63.1257C68.0558 64.938 67.1693 66.6357 65.6821 67.6714L43.8633 82.8666C42.4122 83.8773 40.5196 83.9977 38.952 83.1791C37.3845 82.3606 36.4017 80.7387 36.4017 78.9703V51.8008L22.1574 42.0672V65.5173C22.1574 68.1396 20.0316 70.2654 17.4092 70.2654C14.7869 70.2654 12.6611 68.1396 12.6611 65.5173V33.0719C12.6611 31.311 13.6356 29.6948 15.1928 28.8728Z" fill="#F5EEEB"/>
</svg>
