<svg width="70" height="26" viewBox="0 0 70 26" fill="none" xmlns="http://www.w3.org/2000/svg">
<path fill-rule="evenodd" clip-rule="evenodd" d="M11.5405 0.695218L19.5941 6.0816C20.1134 6.42889 20.4251 7.01238 20.4251 7.63707V18.6897C20.4251 19.3143 20.1134 19.8978 19.5941 20.2451L11.5405 25.6315C10.9108 26.0526 10.0895 26.0526 9.45983 25.6315L1.40617 20.2451C0.886914 19.8978 0.575195 19.3143 0.575195 18.6897V7.63707C0.575195 7.01238 0.886914 6.42889 1.40617 6.0816L9.45983 0.695218C10.0895 0.27412 10.9108 0.27412 11.5405 0.695218Z" fill="#0A2463"/>
<path fill-rule="evenodd" clip-rule="evenodd" d="M3.99233 7.79783C4.40147 7.58187 4.89653 7.61006 5.27851 7.87108L11.3349 12.0096C11.7885 12.3196 12.0598 12.8336 12.0598 13.383V18.5714L15.3866 16.2546V8.90109C15.3866 8.2121 15.9451 7.65357 16.6341 7.65357C17.3231 7.65357 17.8816 8.2121 17.8816 8.90109V16.7975C17.8816 17.2736 17.6487 17.7197 17.2579 17.9918L11.5253 21.9842C11.144 22.2498 10.6467 22.2814 10.2348 22.0663C9.82299 21.8513 9.56477 21.4251 9.56477 20.9605V13.822L5.8222 11.2645V17.4258C5.8222 18.1148 5.26366 18.6734 4.57467 18.6734C3.88568 18.6734 3.32715 18.1148 3.32715 17.4258V8.90109C3.32715 8.43845 3.58318 8.01379 3.99233 7.79783Z" fill="#F5EEEB"/>
<path d="M33.8789 10.0196C34.0437 10.0196 34.1749 10.0758 34.2723 10.1882C34.3772 10.2931 34.4296 10.4317 34.4296 10.6041V17.4717C34.4296 17.6441 34.3772 17.7864 34.2723 17.8988C34.1674 18.0037 34.0325 18.0562 33.8676 18.0562C33.6728 18.0562 33.5229 17.9813 33.418 17.8314L29.012 12.0203V17.4717C29.012 17.6441 28.9595 17.7864 28.8546 17.8988C28.7572 18.0037 28.6261 18.0562 28.4612 18.0562C28.2963 18.0562 28.1652 18.0037 28.0678 17.8988C27.9704 17.7939 27.9217 17.6516 27.9217 17.4717V10.6041C27.9217 10.4317 27.9741 10.2931 28.079 10.1882C28.1839 10.0758 28.3188 10.0196 28.4837 10.0196C28.6785 10.0196 28.8284 10.0945 28.9333 10.2444L33.3394 16.0667V10.6041C33.3394 10.4317 33.3881 10.2931 33.4855 10.1882C33.5829 10.0758 33.714 10.0196 33.8789 10.0196ZM38.7139 18.0787C38.1819 18.0787 37.7136 17.9625 37.3089 17.7302C36.9118 17.4979 36.6008 17.1682 36.376 16.7411C36.1587 16.314 36.05 15.8194 36.05 15.2574C36.05 14.6879 36.1624 14.1859 36.3872 13.7513C36.6195 13.3167 36.9418 12.9795 37.3539 12.7397C37.766 12.4999 38.2381 12.38 38.7701 12.38C39.0549 12.38 39.3396 12.4212 39.6244 12.5036C39.9166 12.5861 40.1751 12.6985 40.3999 12.8408C40.6397 13.0057 40.7596 13.1968 40.7596 13.4141C40.7596 13.5415 40.7259 13.6501 40.6584 13.74C40.591 13.8225 40.5048 13.8637 40.3999 13.8637C40.3325 13.8637 40.265 13.8487 40.1976 13.8187C40.1302 13.7813 40.044 13.7288 39.9391 13.6614C39.7518 13.5415 39.5757 13.4515 39.4108 13.3916C39.2534 13.3242 39.0624 13.2904 38.8376 13.2904C38.328 13.2904 37.9309 13.4628 37.6461 13.8075C37.3689 14.1522 37.2302 14.6317 37.2302 15.2462C37.2302 15.8607 37.3689 16.3365 37.6461 16.6737C37.9234 17.0034 38.3168 17.1682 38.8263 17.1682C39.0511 17.1682 39.2497 17.1345 39.422 17.0671C39.5944 16.9996 39.7705 16.9097 39.9503 16.7973C40.0328 16.7449 40.1152 16.6999 40.1976 16.6624C40.28 16.625 40.355 16.6062 40.4224 16.6062C40.5273 16.6062 40.6135 16.6512 40.6809 16.7411C40.7484 16.8235 40.7821 16.9285 40.7821 17.0558C40.7821 17.1607 40.7521 17.2582 40.6922 17.3481C40.6397 17.4305 40.546 17.5167 40.4112 17.6066C40.1864 17.7565 39.9241 17.8726 39.6244 17.955C39.3246 18.0375 39.0212 18.0787 38.7139 18.0787ZM46.2717 12.4025C46.444 12.4025 46.5789 12.4512 46.6763 12.5486C46.7812 12.646 46.8337 12.7809 46.8337 12.9532V17.5279C46.8337 17.6853 46.7812 17.8127 46.6763 17.9101C46.5714 18.0075 46.4328 18.0562 46.2604 18.0562C46.1031 18.0562 45.9757 18.0112 45.8783 17.9213C45.7809 17.8239 45.7322 17.6965 45.7322 17.5392V17.112C45.5598 17.4268 45.32 17.6665 45.0128 17.8314C44.7131 17.9963 44.3759 18.0787 44.0012 18.0787C42.6674 18.0787 42.0005 17.3443 42.0005 15.8756V12.9532C42.0005 12.7809 42.0492 12.646 42.1466 12.5486C42.2515 12.4512 42.3939 12.4025 42.5737 12.4025C42.7461 12.4025 42.8809 12.4512 42.9784 12.5486C43.0833 12.646 43.1357 12.7809 43.1357 12.9532V15.8644C43.1357 16.3065 43.2256 16.6325 43.4055 16.8423C43.5853 17.0521 43.8626 17.157 44.2372 17.157C44.6793 17.157 45.0315 17.0146 45.2938 16.7299C45.5636 16.4451 45.6984 16.0667 45.6984 15.5946V12.9532C45.6984 12.7884 45.7509 12.6573 45.8558 12.5598C45.9607 12.4549 46.0993 12.4025 46.2717 12.4025ZM51.592 12.38C52.0716 12.38 52.4949 12.4961 52.8621 12.7284C53.2293 12.9607 53.514 13.2904 53.7163 13.7176C53.9262 14.1447 54.0311 14.643 54.0311 15.2125C54.0311 15.7745 53.9262 16.2728 53.7163 16.7074C53.514 17.142 53.2255 17.4792 52.8509 17.719C52.4837 17.9588 52.0641 18.0787 51.592 18.0787C51.1798 18.0787 50.8164 17.9925 50.5017 17.8202C50.187 17.6403 49.9472 17.3855 49.7823 17.0558V17.5054C49.7823 17.6703 49.7299 17.8052 49.625 17.9101C49.5276 18.0075 49.3927 18.0562 49.2203 18.0562C49.048 18.0562 48.9094 18.0075 48.8045 17.9101C48.6996 17.8052 48.6471 17.6703 48.6471 17.5054V10.5591C48.6471 10.3943 48.6996 10.2631 48.8045 10.1657C48.9169 10.0683 49.0592 10.0196 49.2316 10.0196C49.3964 10.0196 49.5276 10.0683 49.625 10.1657C49.7299 10.2556 49.7823 10.3793 49.7823 10.5366V13.4141C49.9472 13.0844 50.187 12.8296 50.5017 12.6498C50.8164 12.4699 51.1798 12.38 51.592 12.38ZM51.3222 17.1795C51.8093 17.1795 52.1877 17.0071 52.4575 16.6624C52.7347 16.3177 52.8733 15.8344 52.8733 15.2125C52.8733 14.598 52.7385 14.1259 52.4687 13.7962C52.1989 13.459 51.8168 13.2904 51.3222 13.2904C50.8277 13.2904 50.4455 13.459 50.1757 13.7962C49.9135 14.1334 49.7823 14.613 49.7823 15.235C49.7823 15.8569 49.9135 16.3365 50.1757 16.6737C50.4455 17.0109 50.8277 17.1795 51.3222 17.1795ZM59.8064 16.6175C59.9113 16.6175 59.9975 16.6587 60.0649 16.7411C60.1324 16.8235 60.1661 16.9285 60.1661 17.0558C60.1661 17.2731 60.0312 17.4567 59.7614 17.6066C59.4992 17.7565 59.2107 17.8726 58.896 17.955C58.5887 18.0375 58.2927 18.0787 58.008 18.0787C57.1388 18.0787 56.4531 17.8277 55.9511 17.3256C55.449 16.8161 55.198 16.1229 55.198 15.2462C55.198 14.6842 55.3067 14.1859 55.524 13.7513C55.7488 13.3167 56.0597 12.9795 56.4569 12.7397C56.8615 12.4999 57.3186 12.38 57.8282 12.38C58.5625 12.38 59.1432 12.616 59.5704 13.0881C59.9975 13.5602 60.211 14.1971 60.211 14.9989C60.211 15.2987 60.0762 15.4485 59.8064 15.4485H56.3332C56.4082 16.61 56.9664 17.1907 58.008 17.1907C58.2853 17.1907 58.525 17.1533 58.7274 17.0783C58.9297 17.0034 59.1432 16.906 59.368 16.7861C59.3905 16.7711 59.4505 16.7411 59.5479 16.6962C59.6528 16.6437 59.739 16.6175 59.8064 16.6175ZM57.8506 13.2118C57.416 13.2118 57.0676 13.3504 56.8053 13.6276C56.5431 13.9049 56.3857 14.2945 56.3332 14.7966H59.2332C59.2107 14.2871 59.0795 13.8974 58.8398 13.6276C58.6075 13.3504 58.2778 13.2118 57.8506 13.2118Z" fill="#0A2463"/>
</svg>
