<svg width="24" height="24" viewBox="0 0 24 24" fill="none" xmlns="http://www.w3.org/2000/svg">
<path d="M19.1401 12.9359C19.1761 12.6359 19.2001 12.3239 19.2001 11.9999C19.2001 11.6759 19.1761 11.3639 19.1281 11.0639L21.1561 9.4799C21.3361 9.3359 21.3841 9.0719 21.2761 8.8679L19.3561 5.5439C19.2361 5.3279 18.9841 5.2559 18.7681 5.3279L16.3801 6.2879C15.8761 5.9039 15.3481 5.5919 14.7601 5.3519L14.4001 2.8079C14.3641 2.5679 14.1601 2.3999 13.9201 2.3999H10.0801C9.84011 2.3999 9.64811 2.5679 9.61211 2.8079L9.25211 5.3519C8.66411 5.5919 8.12411 5.9159 7.63211 6.2879L5.24411 5.3279C5.02811 5.2439 4.77611 5.3279 4.65611 5.5439L2.73611 8.8679C2.61611 9.0839 2.66411 9.3359 2.85611 9.4799L4.88411 11.0639C4.83611 11.3639 4.80011 11.6879 4.80011 11.9999C4.80011 12.3119 4.82411 12.6359 4.87211 12.9359L2.84411 14.5199C2.66411 14.6639 2.61611 14.9279 2.72411 15.1319L4.64411 18.4559C4.76411 18.6719 5.01611 18.7439 5.23211 18.6719L7.62011 17.7119C8.12411 18.0959 8.65211 18.4079 9.24011 18.6479L9.60011 21.1919C9.64811 21.4319 9.84011 21.5999 10.0801 21.5999H13.9201C14.1601 21.5999 14.3641 21.4319 14.3881 21.1919L14.7481 18.6479C15.3361 18.4079 15.8761 18.0839 16.3681 17.7119L18.7561 18.6719C18.9721 18.7559 19.2241 18.6719 19.3441 18.4559L21.2641 15.1319C21.3841 14.9159 21.3361 14.6639 21.1441 14.5199L19.1401 12.9359ZM12.0001 15.5999C10.0201 15.5999 8.40011 13.9799 8.40011 11.9999C8.40011 10.0199 10.0201 8.3999 12.0001 8.3999C13.9801 8.3999 15.6001 10.0199 15.6001 11.9999C15.6001 13.9799 13.9801 15.5999 12.0001 15.5999Z" fill="#0A2463"/>
</svg>
