<svg viewBox="0 0 20 20" fill="none" xmlns="http://www.w3.org/2000/svg">
<rect width="20" height="20" rx="10" fill="#0A2463"/>
<path d="M13.5349 14.9877C13.4047 14.9877 13.293 14.9294 13.2 14.8322L10 11.3705L6.8 14.8516C6.63256 15.0461 6.33488 15.0461 6.14884 14.8711C6.05581 14.7738 6.0186 14.6571 6 14.5405V4.48618C6 4.21392 6.20465 4 6.46512 4H13.5349C13.7953 4 14 4.21392 14 4.48618V14.5016C13.9814 14.7738 13.7767 14.9877 13.5349 14.9877ZM10 10.1843C10.1302 10.1843 10.2419 10.2426 10.3349 10.3398L13.0698 13.3153V4.97237H6.93023V13.3153L9.66512 10.3398C9.75814 10.2426 9.88837 10.1843 10 10.1843Z" fill="white"/>
</svg>
